HIERARCHY
ROOT root
{
	OFFSET 0.000000 0.000000 0.000000
	CHANNELS 6 Xposition Yposition Zposition Zrotation Yrotation Xrotation
	JOINT lhip
	{
		OFFSET 0.058581 -0.082280 -0.017664
		CHANNELS 3 Zrotation Yrotation Xrotation
		JOINT lknee
		{
			OFFSET 0.043451 -0.386469 0.008037
			CHANNELS 3 Zrotation Yrotation Xrotation
			JOINT lankle
			{
				OFFSET -0.014790 -0.426874 -0.037428
				CHANNELS 3 Zrotation Yrotation Xrotation
				JOINT ltoe
				{
					OFFSET 0.041054 -0.060286 0.122042
					CHANNELS 3 Zrotation Yrotation Xrotation
					End Site
					{
						OFFSET 0.000000 0.000000 0.000000
					}
				}
			}
		}
	}
	JOINT rhip
	{
		OFFSET -0.060310 -0.090513 -0.013543
		CHANNELS 3 Zrotation Yrotation Xrotation
		JOINT rknee
		{
			OFFSET -0.043257 -0.383688 -0.004843
			CHANNELS 3 Zrotation Yrotation Xrotation
			JOINT rankle
			{
				OFFSET 0.019056 -0.420046 -0.034562
				CHANNELS 3 Zrotation Yrotation Xrotation
				JOINT rtoe
				{
					OFFSET -0.034840 -0.062106 0.130323
					CHANNELS 3 Zrotation Yrotation Xrotation
					End Site
					{
						OFFSET 0.000000 0.000000 0.000000
					}
				}
			}
		}
	}
	JOINT lowerback
	{
		OFFSET 0.004439 0.124404 -0.038385
		CHANNELS 3 Zrotation Yrotation Xrotation
		JOINT upperback
		{
			OFFSET 0.004488 0.137956 0.026820
			CHANNELS 3 Zrotation Yrotation Xrotation
			JOINT chest
			{
				OFFSET -0.002265 0.056032 0.002855
				CHANNELS 3 Zrotation Yrotation Xrotation
				JOINT lowerneck
				{
					OFFSET -0.013390 0.211636 -0.033468
					CHANNELS 3 Zrotation Yrotation Xrotation
					JOINT upperneck
					{
						OFFSET 0.010113 0.088937 0.050410
						CHANNELS 3 Zrotation Yrotation Xrotation
						End Site
						{
							OFFSET 0.000000 0.000000 0.000000
						}
					}
				}
				JOINT lclavicle
				{
					OFFSET 0.071702 0.114000 -0.018898
					CHANNELS 3 Zrotation Yrotation Xrotation
					JOINT lshoulder
					{
						OFFSET 0.122921 0.045205 -0.019046
						CHANNELS 3 Zrotation Yrotation Xrotation
						JOINT lelbow
						{
							OFFSET 0.255332 -0.015649 -0.022946
							CHANNELS 3 Zrotation Yrotation Xrotation
							JOINT lwrist
							{
								OFFSET 0.265709 0.012698 -0.007375
								CHANNELS 3 Zrotation Yrotation Xrotation
								End Site
								{
									OFFSET 0.000000 0.000000 0.000000
								}
							}
						}
					}
				}
				JOINT rclavicle
				{
					OFFSET -0.082954 0.112472 -0.023707
					CHANNELS 3 Zrotation Yrotation Xrotation
					JOINT rshoulder
					{
						OFFSET -0.113228 0.046853 -0.008472
						CHANNELS 3 Zrotation Yrotation Xrotation
						JOINT relbow
						{
							OFFSET -0.260127 -0.014369 -0.031269
							CHANNELS 3 Zrotation Yrotation Xrotation
							JOINT rwrist
							{
								OFFSET -0.269108 0.006794 -0.006027
								CHANNELS 3 Zrotation Yrotation Xrotation
								End Site
								{
									OFFSET 0.000000 0.000000 0.000000
								}
							}
						}
					}
				}
			}
		}
	}
}
MOTION
Frames: 13
Frame Time: 0.033333
0.214249 -0.218173 0.999246 -89.802114 -0.755197 83.250787 4.692618 -2.195397 -29.504136 -6.946057 7.110241 51.959954 -0.298481 2.796241 1.105637 0.000000 -0.000000 0.000000 4.277415 -1.515460 0.178851 -0.494471 -0.230676 19.437670 -4.344723 -5.741777 -22.351806 0.000000 -0.000000 0.000000 0.570009 3.104774 22.887471 -2.907898 -0.895963 -0.958386 -0.796329 1.255224 0.662889 0.159037 -3.406256 -2.052419 7.006291 4.355431 9.947890 -16.492610 -5.232931 2.423499 -51.913324 -0.184167 12.259552 17.632674 -85.829192 15.879246 9.398720 -15.310268 -9.897668 4.956279 14.840072 2.952897 61.239540 -0.370239 15.954956 18.905414 56.842640 44.861996 24.824639 10.055688 -19.223283 
0.232008 -0.217155 0.999053 -91.386083 -0.920022 82.758607 5.373780 -1.512553 -30.836082 -6.377833 7.989724 59.088391 -2.268649 2.526653 5.956941 0.000000 -0.000000 0.000000 3.469863 -1.148719 -0.966266 0.071017 -0.362364 20.250553 -3.850183 -4.116731 -21.876167 0.000000 -0.000000 0.000000 0.914380 3.613378 23.256120 -3.178400 0.068343 -0.832817 -1.019044 1.782237 0.358401 0.192352 -3.721692 -1.752352 6.348338 4.245841 10.236369 -16.966528 -5.132045 2.724965 -52.885223 2.552756 12.600556 4.596307 -80.630451 27.929509 6.403314 -15.187626 -9.456103 4.142030 15.871636 2.337446 58.152327 1.071819 15.663948 24.192330 59.019243 49.780667 28.450420 11.388360 -21.273459 
0.248680 -0.216271 1.000483 -92.159514 -0.562924 82.313020 5.785195 -0.932310 -31.253936 -5.807282 7.673405 65.224820 -3.921764 2.200280 11.657415 0.000000 -0.000000 0.000000 3.492349 -0.928129 -2.242494 0.587443 -0.284426 21.236955 -3.889244 -3.434973 -20.975136 0.000000 -0.000000 0.000000 1.337834 3.584178 23.375128 -3.180087 0.737741 -0.437348 -0.985152 1.960638 -0.256346 0.196539 -4.625810 -0.870063 5.984433 5.304362 10.468647 -17.473660 -4.764925 3.345609 -53.848887 5.444685 12.230658 1.532213 -75.774615 30.530707 2.167326 -14.460898 -8.464828 3.130417 17.116885 1.891990 55.099405 3.116825 15.052935 28.784884 60.144081 53.274604 33.145215 12.937554 -23.552375 
0.264417 -0.215634 1.001517 -92.529358 -0.492743 82.142703 5.764748 -0.924741 -30.654977 -6.222386 7.155754 69.467176 -5.830618 1.613873 17.964617 0.000000 -0.000000 0.000000 3.866078 -0.823311 -3.174642 0.362423 0.090590 21.092883 -4.674563 -3.634374 -19.542105 0.000000 -0.000000 0.000000 1.470458 3.464402 22.993191 -3.286784 1.026245 -0.009107 -1.026165 2.159215 -0.708378 0.092747 -5.768257 0.212506 6.211793 6.627375 10.288340 -17.594825 -4.180873 4.172747 -54.460774 8.143879 12.098768 -0.453655 -72.056028 29.670763 0.049564 -13.665982 -12.416664 1.993660 18.306540 1.584544 52.096410 5.555005 14.824682 32.589075 61.442165 55.787986 36.292383 13.934384 -24.957055 
0.278725 -0.216825 1.002512 -92.588057 -0.505203 81.941500 5.066878 -1.080647 -28.276346 -7.818556 6.223598 71.848807 -6.049777 0.760945 17.635690 0.000000 -0.000000 0.000000 3.963344 -0.518395 -3.982072 0.382156 0.540989 20.921918 -5.031422 -4.128904 -17.799266 0.000000 -0.000000 0.000000 1.990052 3.015246 22.315849 -3.629732 1.380848 0.626507 -1.330636 2.253514 -0.855981 0.158771 -6.750354 0.968866 5.970077 7.650643 9.988885 -17.751898 -3.918897 5.000229 -54.810137 10.834309 11.701790 -1.576041 -68.668227 29.307594 -2.176279 -13.494056 -14.186609 0.503478 19.494966 1.070499 49.408287 7.887464 14.121670 35.872549 62.828111 58.522097 38.986704 14.632601 -25.462558 
0.293459 -0.218345 1.002730 -93.038173 -0.539821 82.085595 4.220231 -1.015268 -25.125138 -8.067208 5.739569 71.836229 -6.087697 1.349925 17.444253 0.000000 -0.000000 0.000000 3.747027 0.345594 -5.703136 0.642573 0.472617 21.744487 -4.961651 -4.082808 -16.787886 0.000000 -0.000000 0.000000 2.485333 2.479221 21.410528 -4.128162 2.090035 1.282015 -1.723612 2.288173 -1.243013 0.560939 -7.218008 1.698012 5.360364 8.320686 9.802358 -17.821476 -3.034558 5.552153 -55.029814 13.679299 10.816515 -2.015570 -65.873925 29.727834 -7.562670 -13.678631 -12.336815 -0.575568 20.458075 0.722279 46.590461 10.492889 13.001190 37.820407 63.994706 59.991372 41.906041 15.271284 -25.324280 
0.308640 -0.220174 1.002356 -93.573983 -0.484852 82.540529 3.386050 -0.306175 -21.313619 -9.137354 4.435193 69.197878 -5.843750 1.189951 16.158310 0.000000 -0.000000 0.000000 3.713544 0.757306 -7.435850 0.710454 0.630886 21.953894 -4.926015 -3.837174 -15.884206 0.000000 -0.000000 0.000000 2.905830 1.855856 20.374274 -4.554746 2.834292 1.604045 -1.921197 2.521528 -1.437892 0.669223 -7.525021 2.540645 4.821652 8.910557 9.049255 -17.703267 -1.765405 5.987361 -55.040419 16.162476 10.208517 -4.041307 -64.246708 29.588220 -12.167030 -14.234738 -15.903023 -1.505421 20.951557 0.551488 43.845551 13.453298 11.630706 37.731900 65.124746 58.973900 43.740322 14.824493 -24.636690 
0.323994 -0.222785 1.001651 -93.892449 -0.452246 82.919997 2.355002 0.902664 -16.504561 -11.203703 1.882259 65.008190 -4.232183 1.582639 7.751011 0.000000 -0.000000 0.000000 3.626284 0.869383 -9.218626 0.744479 0.894689 22.320875 -4.233657 -3.507875 -15.091712 0.000000 -0.000000 0.000000 3.157450 1.228740 19.417519 -4.771899 3.411626 1.810991 -2.048495 2.767165 -1.226045 1.409187 -6.914301 2.552400 3.940707 8.180749 8.543354 -17.107075 -1.023537 6.455000 -55.282459 18.107646 10.045133 -6.896741 -62.728503 30.033710 -15.047287 -15.684289 -21.592368 -2.263816 21.165542 0.230925 41.843048 16.274223 9.972807 33.830883 66.209851 54.501944 45.013240 13.990346 -23.899652 
0.340320 -0.226132 1.000060 -93.975402 -0.463121 83.594701 1.546281 0.528625 -10.668390 -13.280094 -0.190126 58.584629 0.257289 2.664087 -6.287463 0.000000 -0.000000 0.000000 3.355669 2.241983 -11.921030 1.129393 1.006413 23.644018 -3.311845 -4.625029 -14.006816 0.000000 -0.000000 0.000000 3.042508 0.432941 18.064690 -4.662610 3.902442 2.261803 -2.078177 2.745268 -1.092473 2.170838 -6.368104 2.614921 2.819386 7.922324 8.128537 -16.530959 -0.483082 7.010716 -55.711118 19.406205 9.959109 -9.364134 -60.919181 31.889056 -18.691223 -17.153327 -22.839431 -2.638160 21.357528 -0.080672 41.076012 19.196969 8.975660 23.458697 67.293843 44.002916 45.764835 11.879318 -21.720147 
0.356762 -0.229998 0.997492 -93.200709 -0.355452 84.311914 0.360421 -0.293475 -4.834046 -13.063314 -2.879484 49.894469 3.849399 5.150193 -18.578578 0.000000 -0.000000 0.000000 3.308625 3.820803 -14.136132 0.965261 0.883842 24.237783 -2.410015 -6.547474 -12.904506 0.000000 -0.000000 0.000000 2.701473 -0.578173 16.636876 -4.128989 3.703126 2.822023 -1.888354 2.372008 -0.862046 2.937657 -5.541374 2.556578 1.539563 7.714247 7.872074 -16.026848 0.263219 7.475575 -56.499985 19.877989 9.672970 -11.393591 -59.416946 34.941783 -22.462257 -18.072595 -21.961541 -2.207233 21.017180 -0.346007 41.362609 22.537461 8.561583 9.202336 68.105894 30.976098 44.818964 8.316939 -17.623074 
0.375096 -0.234141 0.994845 -91.521008 0.041292 85.463809 -0.692877 -0.696483 -0.587350 -11.232676 -5.220904 40.535190 4.745908 8.769375 -26.995801 0.000000 -0.000000 0.000000 3.136004 4.717786 -16.596242 0.715181 0.212187 24.227400 -1.311713 -8.092892 -11.567702 0.000000 -0.000000 0.000000 2.518276 -1.655002 15.255773 -3.177398 2.922822 2.811627 -1.671901 1.873961 -0.352447 3.565148 -4.333660 1.807097 0.629168 6.604134 8.193090 -15.747744 0.775133 7.700722 -57.397949 19.227649 9.447650 -12.846634 -57.912536 37.210816 -23.784655 -18.147347 -21.894761 -0.598756 19.769484 -0.460021 42.522995 25.518288 8.432099 -5.922762 69.155734 18.348167 40.236553 4.087333 -11.090744 
0.394636 -0.238345 0.993414 -89.871910 0.336676 86.359571 -1.515450 -0.157233 1.606020 -8.772899 -6.156055 32.760636 6.039526 10.842909 -30.928828 0.000000 -0.000000 0.000000 2.372880 4.603143 -19.076761 0.951314 -0.588444 24.470018 0.092801 -8.306919 -9.818932 0.000000 -0.000000 0.000000 2.141033 -2.478282 15.018514 -2.317504 2.066871 2.357456 -1.327238 1.317491 0.097255 4.194330 -3.210547 0.831597 0.155967 5.484379 8.083608 -15.751673 1.061165 7.460357 -57.801673 17.638957 9.597374 -14.311410 -56.330883 40.249114 -21.736617 -17.273413 -20.483277 1.444726 18.372727 -0.490087 44.641291 27.675739 9.044142 -20.741423 69.876686 5.500743 29.738951 2.259112 -3.452188 
0.415566 -0.241347 0.993121 -88.806507 0.485406 86.892528 -1.416034 0.436510 1.886308 -8.104740 -7.208235 28.325758 7.090941 10.971506 -31.940799 0.000000 -0.000000 0.000000 1.515181 3.544264 -21.695421 1.503207 -0.999288 25.383205 1.516185 -7.319323 -7.841436 0.000000 -0.000000 0.000000 1.652035 -2.730952 15.953369 -1.746761 1.282632 1.230996 -0.943043 0.736945 0.685825 4.647965 -1.894015 -0.381544 0.108510 4.325303 7.954808 -15.648073 1.122916 7.106316 -57.981267 15.330234 9.790216 -15.286630 -55.672158 42.476555 -14.211789 -15.668663 -20.142946 3.816881 17.239427 -0.308862 46.787582 29.230665 10.065724 -29.482879 69.915479 -2.023740 14.182106 4.631750 3.870869 
